<svg width="288" height="800" viewBox="0 0 288 800" fill="none" xmlns="http://www.w3.org/2000/svg">
<g clip-path="url(#clip0)">
<path d="M56.0243 -6.61683e-06L46.6577 56.3877C37.6413 112.775 18.383 225.551 42.0182 338.326C65.6535 451.101 130.432 563.877 163.433 676.652C196.085 789.427 196.085 902.203 168.073 1014.98C140.061 1127.75 84.0364 1240.53 56.0242 1353.3C28.0121 1466.08 28.0121 1578.85 28.0121 1635.24L28.0121 1691.63L-8.21126e-05 1691.63L-7.9955e-05 1635.24C-7.77973e-05 1578.85 -7.34821e-05 1466.08 -6.91669e-05 1353.3C-6.48516e-05 1240.53 -6.05364e-05 1127.75 -5.62211e-05 1014.98C-5.19059e-05 902.203 -4.75906e-05 789.427 -4.32754e-05 676.652C-3.89602e-05 563.877 -3.46449e-05 451.101 -3.03297e-05 338.326C-2.60144e-05 225.551 -2.16992e-05 112.775 -1.95416e-05 56.3877L-1.73839e-05 -9.41436e-06L56.0243 -6.61683e-06Z" fill="white"/>
</g>
<defs>
<clipPath id="clip0">
<rect width="288" height="800" fill="white"/>
</clipPath>
</defs>
</svg>
